<svg version="1" xmlns="http://www.w3.org/2000/svg" width="494.667" height="494.667" viewBox="0 0 371.000000 371.000000"><path d="M131.1 14.6C85.7 22.2 44.5 56 14.2 110.5c-6.7 12-14.9 30.2-14 31 .3.3 2.7-.3 5.4-1.3 19.1-7.5 43.3-7.6 73.4-.4 4.1 1 7.4 2.3 7.3 2.8-.2.5-1.9 4.8-3.8 9.7-8 19.6-11 37.6-10.2 61.7.8 23 4.2 37.4 13.7 57.6 19.8 42.3 57.3 72.1 104.1 82.6 9 2 13.1 2.3 30.9 2.3 16 0 22.4-.4 29-1.8 20.5-4.4 41.7-13.6 58.3-25.4 10.5-7.4 26.6-23.5 34-34 11.5-16.2 21-37.8 25.3-57.3 2.7-12.2 2.7-47.8 0-60-8.6-39.2-31.7-73.2-64.3-94.7-10.9-7.1-26.3-14.4-37.8-17.9l-9.4-2.8-.3-7.5-.3-7.6-5-3.3c-12.9-8.4-37.4-19.5-55-24.9-19.9-6-45.5-7.9-64.4-4.7zM275 82.5c15.2 6.4 35.4 20.5 45.5 31.7 21.4 23.7 33.3 50.1 36.6 81.3 4.4 41.8-13.5 86.7-45.6 114.7-42.5 37-101.3 44.8-151 20-33.2-16.5-57.2-44.2-69-79.5-8.8-26.3-9.1-56.7-.9-82.8C94 157.1 99 146 100.4 146c.6 0 7.2 1.6 14.7 3.5 20.4 5.1 34 6.8 48.9 6.2 37.1-1.5 67-20.2 81.4-50.8 3.7-7.8 8.6-23.5 8.6-27.4v-2.3l7.3 2.2c3.9 1.3 10.1 3.5 13.7 5.1z"/></svg>