<svg xmlns="http://www.w3.org/2000/svg" viewBox="0 0 890.18 100.12"><defs><style>.cls-1{fill:#f7f8f8;}.cls-2{fill:none;stroke:#f7f8f8;stroke-miterlimit:10;stroke-width:3px;}.cls-3{fill:#fafbfc;}</style></defs><title>Recurso 2</title><g id="Capa_2" data-name="Capa 2"><g id="Capa_1-2" data-name="Capa 1"><path class="cls-1" d="M190.43,7.15q14.72,0,21.12,6.91T218,34.51V44q0,13.63-6.54,20.59t-21.57,7H135.72V97.23a2.89,2.89,0,0,1-2.89,2.89h-12q-2.95,0-2.94-2.92V11.14q0-4,3.84-4ZM139.29,53.63H188.2q6.51,0,9.2-2.91t2.68-8.87v-5q0-6-2.68-8.87T188.2,25H141q-1.66,0-1.66,1.59Z"/><path class="cls-1" d="M250.14,2.89V97.23a2.89,2.89,0,0,1-2.89,2.89H235.15a2.89,2.89,0,0,1-2.89-2.89V2.89A2.89,2.89,0,0,1,235.15,0h12.09A2.89,2.89,0,0,1,250.14,2.89Z"/><path class="cls-1" d="M283.05,28.61q2.84,0,2.84,3.12V70.9a41.24,41.24,0,0,0,.52,7.18,9.55,9.55,0,0,0,1.94,4.54,7.89,7.89,0,0,0,4,2.44,25.47,25.47,0,0,0,6.86.75h33.24a27,27,0,0,0,7-.75,9.16,9.16,0,0,0,4.33-2.44A9.49,9.49,0,0,0,346,78.09a33.33,33.33,0,0,0,.65-7.18V31.73q0-3.12,2.85-3.12h15.69q2.91,0,2.92,3v42.2a40.06,40.06,0,0,1-1.59,12,17.76,17.76,0,0,1-5.24,8.21,22.26,22.26,0,0,1-9.74,4.62,66.65,66.65,0,0,1-15,1.43h-37a66.41,66.41,0,0,1-15-1.43,22.19,22.19,0,0,1-9.68-4.62,17.76,17.76,0,0,1-5.24-8.21,40.06,40.06,0,0,1-1.59-12V31.63a3,3,0,0,1,3-3Z"/><path class="cls-1" d="M480.22,28.61a61.24,61.24,0,0,1,14.69,1.5,22.85,22.85,0,0,1,9.6,4.69A17.19,17.19,0,0,1,509.66,43a42.44,42.44,0,0,1,1.5,12V97.23a2.89,2.89,0,0,1-2.89,2.89H496.1q-2.82,0-2.82-3V57.82a42.13,42.13,0,0,0-.51-7.12,9.73,9.73,0,0,0-1.92-4.61,7.87,7.87,0,0,0-4-2.44,25.21,25.21,0,0,0-6.79-.75H457.53V97.13q0,3-2.95,3H439a2.89,2.89,0,0,1-2.89-2.89V42.91H414.28a26.06,26.06,0,0,0-6.79.75,9.1,9.1,0,0,0-4.29,2.44A9.52,9.52,0,0,0,401,50.7a33.57,33.57,0,0,0-.64,7.12v39.4a2.89,2.89,0,0,1-2.89,2.89h-12q-3,0-3-2.87V55A40.66,40.66,0,0,1,384,43a17.82,17.82,0,0,1,5.16-8.21,22.28,22.28,0,0,1,9.53-4.69,61.87,61.87,0,0,1,14.82-1.5Z"/><path class="cls-1" d="M536.19,28.61V10a2.89,2.89,0,0,1,2.89-2.89h15.67A2.89,2.89,0,0,1,557.64,10V28.61h22.66A2.37,2.37,0,0,1,582.67,31v9.57a2.37,2.37,0,0,1-2.37,2.37H557.64v31.8q0,5.76,2.21,8.43t8.69,2.67h11.77a2.37,2.37,0,0,1,2.37,2.37v9.57a2.37,2.37,0,0,1-2.37,2.37H563.78a56.43,56.43,0,0,1-13.46-1.33,19.38,19.38,0,0,1-8.49-4.24A15.15,15.15,0,0,1,537.41,87a43.46,43.46,0,0,1-1.22-11V42.91H524.25a2.37,2.37,0,0,1-2.37-2.37V31a2.37,2.37,0,0,1,2.37-2.37Z"/><path class="cls-1" d="M659.95,28.61a47,47,0,0,1,11.16,1.11,14.87,14.87,0,0,1,7,3.65A14,14,0,0,1,681.73,40a40.48,40.48,0,0,1,1.06,10V64q0,4.21-1.87,5.85t-5.75,1.64H607.7v3.7q0,5.6,3,8.1t11.48,2.5h54.71a2.37,2.37,0,0,1,2.37,2.37v9.57a2.37,2.37,0,0,1-2.37,2.37h-55.6a65.91,65.91,0,0,1-15-1.43,22.07,22.07,0,0,1-9.64-4.62,17.79,17.79,0,0,1-5.22-8.21,40.29,40.29,0,0,1-1.58-12V55a40.3,40.3,0,0,1,1.58-12,17.81,17.81,0,0,1,5.22-8.21,22.65,22.65,0,0,1,9.64-4.69,63.31,63.31,0,0,1,15-1.5ZM607.7,57.21h55A2.23,2.23,0,0,0,664.91,55v-5q0-3.82-1.76-5.42t-6.51-1.6h-34q-8.81,0-11.86,2.53t-3,8.44Z"/><path class="cls-1" d="M777,28.61A2.37,2.37,0,0,1,779.33,31V44.12A2.37,2.37,0,0,1,777,46.48H725.77a30,30,0,0,0-7.12.7,9.16,9.16,0,0,0-4.35,2.29,9,9,0,0,0-2.24,4.33,29,29,0,0,0-.66,6.68V71.81a28.77,28.77,0,0,0,.66,6.75,8.91,8.91,0,0,0,2.24,4.26,9.1,9.1,0,0,0,4.35,2.29,29.78,29.78,0,0,0,7.12.7H777a2.37,2.37,0,0,1,2.37,2.37v9.57a2.37,2.37,0,0,1-2.37,2.37H724.56a64.31,64.31,0,0,1-14.8-1.43,21.69,21.69,0,0,1-9.52-4.62,17.81,17.81,0,0,1-5.15-8.21,40.76,40.76,0,0,1-1.56-12V55a40.77,40.77,0,0,1,1.56-12,17.83,17.83,0,0,1,5.15-8.21,22.26,22.26,0,0,1,9.52-4.69,61.78,61.78,0,0,1,14.8-1.5Z"/><path class="cls-1" d="M808.62,0a2.89,2.89,0,0,1,2.89,2.89V28.61h48.07a60.23,60.23,0,0,1,14.53,1.5,21.88,21.88,0,0,1,9.45,4.69A17.89,17.89,0,0,1,888.64,43a41.33,41.33,0,0,1,1.54,12V97.23a2.89,2.89,0,0,1-2.89,2.89H875.19a2.89,2.89,0,0,1-2.89-2.89V57.82a41.77,41.77,0,0,0-.52-7.12,9.32,9.32,0,0,0-2-4.61,8.34,8.34,0,0,0-4.07-2.44,25,25,0,0,0-6.73-.75H811.51V97.23a2.89,2.89,0,0,1-2.89,2.89H796.53a2.89,2.89,0,0,1-2.89-2.89V2.89A2.89,2.89,0,0,1,796.53,0Z"/><circle class="cls-2" cx="55.27" cy="59" r="35.76"/><path class="cls-3" d="M63.8,18.89s2,17.73-12.91,24.63C32.54,52,17.34,34.73,0,42.49,0,42.49,18.31-9.72,63.8,18.89Z"/></g></g></svg>